HIERARCHY
ROOT Hips
{
    OFFSET 0.000000 0.000000 0.000000
    CHANNELS 6 Xposition Yposition Zposition Zrotation Xrotation Yrotation
    JOINT Spine
    {
        OFFSET -0.000000 14.517291 0.000000
        CHANNELS 3 Zrotation Xrotation Yrotation
        JOINT Spine1
        {
            OFFSET -0.000000 37.558300 0.000000
            CHANNELS 3 Zrotation Xrotation Yrotation
            JOINT Neck
            {
                OFFSET -0.000000 37.404057 3.400369
                CHANNELS 3 Zrotation Xrotation Yrotation
                JOINT Head
                {
                    OFFSET -0.000000 24.785618 -3.540803
                    CHANNELS 3 Zrotation Xrotation Yrotation
                    End Site
                    {
                        OFFSET -0.000000 35.408028 0.000000
                    }
                }
            }
            JOINT LeftShoulder
            {
                OFFSET 6.992933 33.973492 -0.192664
                CHANNELS 3 Zrotation Xrotation Yrotation
                JOINT LeftArm
                {
                    OFFSET 21.527611 0.000000 0.000000
                    CHANNELS 3 Zrotation Xrotation Yrotation
                    JOINT LeftForeArm
                    {
                        OFFSET 56.353916 0.000000 0.000000
                        CHANNELS 3 Zrotation Xrotation Yrotation
                        JOINT LeftHand
                        {
                            OFFSET 47.774071 0.000000 0.000000
                            CHANNELS 3 Zrotation Xrotation Yrotation
                            End Site
                            {
                                OFFSET 26.556021 0.000000 0.000000
                            }
                        }
                    }
                }
            }
            JOINT RightShoulder
            {
                OFFSET -7.065357 33.973492 -0.192664
                CHANNELS 3 Zrotation Xrotation Yrotation
                JOINT RightArm
                {
                    OFFSET -21.527611 0.000000 0.000000
                    CHANNELS 3 Zrotation Xrotation Yrotation
                    JOINT RightForeArm
                    {
                        OFFSET -56.353916 0.000000 0.000000
                        CHANNELS 3 Zrotation Xrotation Yrotation
                        JOINT RightHand
                        {
                            OFFSET -47.774071 0.000000 0.000000
                            CHANNELS 3 Zrotation Xrotation Yrotation
                            End Site
                            {
                                OFFSET -26.556021 0.000000 0.000000
                            }
                        }
                    }
                }
            }
        }
    }
    JOINT LeftUpLeg
    {
        OFFSET 17.704014 0.000000 0.000000
        CHANNELS 3 Zrotation Xrotation Yrotation
        JOINT LeftLeg
        {
            OFFSET -0.000000 -81.181816 0.000000
            CHANNELS 3 Zrotation Xrotation Yrotation
            JOINT LeftFoot
            {
                OFFSET -0.000000 -62.821102 0.000000
                CHANNELS 3 Zrotation Xrotation Yrotation
                JOINT LeftToeBase
                {
                    OFFSET -0.000000 -11.507608 26.556021
                    CHANNELS 3 Zrotation Xrotation Yrotation
                    End Site
                    {
                        OFFSET -0.000000 0.000000 7.081605
                    }
                }
            }
        }
    }
    JOINT RightUpLeg
    {
        OFFSET -17.704014 0.000000 0.000000
        CHANNELS 3 Zrotation Xrotation Yrotation
        JOINT RightLeg
        {
            OFFSET -0.000000 -81.181816 0.000000
            CHANNELS 3 Zrotation Xrotation Yrotation
            JOINT RightFoot
            {
                OFFSET -0.000000 -62.821102 0.000000
                CHANNELS 3 Zrotation Xrotation Yrotation
                JOINT RightToeBase
                {
                    OFFSET -0.000000 -11.507608 26.556021
                    CHANNELS 3 Zrotation Xrotation Yrotation
                    End Site
                    {
                        OFFSET -0.000000 0.000000 7.081605
                    }
                }
            }
        }
    }
}
MOTION
Frames:    9
Frame Time:    0.008333
1.364603    157.841949    -101.949547    -15.965182    -12.701261    26.766834    -5.556413    7.460155    0.086483    -8.114401    1.313441    0.002416    6.851207    -6.001821    -6.093989    14.476540    -0.244822    -5.634166    4.418021    7.905444    -18.858500    -27.687330    25.635031    -53.949036    0.650600    -11.363897    -99.275551    12.463867    -11.771400    -10.786746    -7.827073    -1.283338    -1.342663    30.459951    -17.280529    61.842896    -31.851986    -23.615818    58.797379    -0.838313    -5.993118    36.273735    28.203362    -10.174137    -2.264306    -12.555043    45.063675    -20.220215    10.730327    -29.111143    42.793266    0.000000    0.000000    0.000000    1.945470    -18.662928    -13.931304    10.944378    17.254799    -13.171012    9.813469    23.550093    -14.702601    0.000000    0.000000    0.000000    
1.417583    157.821213    -101.961388    -15.946115    -12.706336    26.756639    -5.556967    7.460763    0.083917    -8.130145    1.310634    0.002014    6.855512    -5.972391    -6.099726    14.503490    -0.303413    -5.628016    4.426963    7.910771    -18.854990    -27.697792    25.646284    -53.965012    0.672623    -11.389248    -99.268478    12.425748    -11.769929    -10.804889    -7.825822    -1.271686    -1.361475    30.457998    -17.295910    61.850864    -31.840239    -23.672983    58.805630    -0.796884    -6.045788    36.268482    28.173239    -10.159025    -2.231798    -12.546360    45.099918    -20.243216    10.766282    -29.132540    42.800022    0.000000    0.000000    0.000000    1.934908    -18.634609    -13.933619    10.929171    17.240479    -13.204782    9.783346    23.513103    -14.656884    0.000000    0.000000    0.000000    
1.459930    157.798096    -101.979301    -15.936813    -12.696395    26.743641    -5.559917    7.444660    0.079496    -8.139517    1.309640    0.000198    6.875888    -5.990637    -6.103485    14.494030    -0.293929    -5.639754    4.432858    7.916625    -18.858593    -27.702692    25.623650    -53.973705    0.644076    -11.352646    -99.278030    12.468864    -11.768938    -10.793983    -7.823953    -1.249376    -1.374802    30.458364    -17.311045    61.872456    -31.874619    -23.728119    58.787445    -0.755699    -6.077664    36.229649    28.148222    -10.165177    -2.193835    -12.548345    45.136589    -20.230339    10.795762    -29.151451    42.789768    0.000000    0.000000    0.000000    1.924307    -18.628641    -13.918672    10.920069    17.224623    -13.217686    9.739780    23.482687    -14.614564    0.000000    0.000000    0.000000    
1.501637    157.779724    -101.997032    -15.927783    -12.694498    26.725515    -5.560924    7.439670    0.081666    -8.151472    1.302729    0.001190    6.891024    -5.964293    -6.122656    14.502274    -0.332158    -5.655311    4.448310    7.926508    -18.867767    -27.712723    25.615913    -53.984451    0.646242    -11.349290    -99.272278    12.441175    -11.758968    -10.779756    -7.810599    -1.249420    -1.386608    30.478140    -17.329428    61.887756    -31.868246    -23.777174    58.802601    -0.688638    -6.107257    36.234791    28.122795    -10.161952    -2.159218    -12.524727    45.174007    -20.263220    10.825608    -29.169672    42.793659    0.000000    0.000000    0.000000    1.922831    -18.619127    -13.924497    10.905660    17.211262    -13.232511    9.688668    23.465309    -14.579268    0.000000    0.000000    0.000000    
1.540642    157.761261    -102.013954    -15.924218    -12.692024    26.705215    -5.557017    7.428024    0.080546    -8.156546    1.304806    0.000729    6.904120    -5.948223    -6.134241    14.500478    -0.370616    -5.664555    4.450261    7.922034    -18.874619    -27.706543    25.638899    -53.990105    0.665617    -11.376943    -99.265198    12.452803    -11.766839    -10.792646    -7.817340    -1.242059    -1.386485    30.509916    -17.354189    61.900066    -31.886557    -23.809282    58.818466    -0.691039    -6.125233    36.179787    28.110342    -10.158832    -2.116693    -12.519542    45.204281    -20.274683    10.842394    -29.194906    42.790794    0.000000    0.000000    0.000000    1.927160    -18.614569    -13.897790    10.891529    17.198458    -13.224265    9.655145    23.439205    -14.566700    0.000000    0.000000    0.000000    
1.586012    157.745834    -102.030472    -15.909388    -12.695951    26.685219    -5.553735    7.427453    0.079026    -8.166373    1.304034    0.000807    6.898144    -5.948355    -6.152038    14.522446    -0.369035    -5.678930    4.447775    7.934697    -18.880175    -27.685064    25.645710    -54.001186    0.677682    -11.402307    -99.261795    12.445586    -11.777694    -10.793363    -7.819896    -1.240369    -1.386954    30.552141    -17.379677    61.921810    -31.910841    -23.802595    58.829147    -0.745768    -6.115942    36.103115    28.084581    -10.145142    -2.098380    -12.522007    45.238148    -20.282682    10.876665    -29.203835    42.798611    0.000000    0.000000    0.000000    1.917612    -18.596373    -13.883913    10.890769    17.182529    -13.212769    9.615131    23.423319    -14.574836    0.000000    0.000000    0.000000    
1.618994    157.732880    -102.051163    -15.903047    -12.691361    26.659506    -5.551109    7.421325    0.073402    -8.179255    1.304303    -0.000909    6.931164    -5.946771    -6.145403    14.502304    -0.391517    -5.678755    4.456262    7.934128    -18.873781    -27.674671    25.661625    -54.009148    0.694565    -11.425044    -99.252380    12.404202    -11.778470    -10.805669    -7.811710    -1.240306    -1.376217    30.549492    -17.376324    61.929733    -31.978941    -23.849003    58.806866    -0.764613    -6.138182    36.052086    28.068859    -10.143023    -2.072697    -12.535569    45.265465    -20.251707    10.888579    -29.217861    42.781254    0.000000    0.000000    0.000000    1.920175    -18.598505    -13.831800    10.883678    17.169985    -13.213919    9.617647    23.404655    -14.605279    0.000000    0.000000    0.000000    
1.654687    157.720596    -102.072502    -15.893948    -12.684004    26.630608    -5.553995    7.410515    0.073110    -8.181785    1.309160    -0.000778    6.908165    -5.931499    -6.161457    14.556442    -0.422490    -5.678091    4.455126    7.937255    -18.871307    -27.667891    25.659111    -54.014256    0.696780    -11.423781    -99.245308    12.413693    -11.775769    -10.806760    -7.813890    -1.239976    -1.377242    30.564030    -17.371321    61.941422    -32.005844    -23.905869    58.823193    -0.751770    -6.172815    36.054359    28.049311    -10.145682    -2.042885    -12.550948    45.302376    -20.245226    10.900926    -29.224558    42.788734    0.000000    0.000000    0.000000    1.917145    -18.600536    -13.811099    10.874890    17.158249    -13.206517    9.613191    23.394548    -14.636193    0.000000    0.000000    0.000000    
1.689803    157.714111    -102.092766    -15.881910    -12.677067    26.603262    -5.542146    7.326524    0.043638    -8.202742    1.421520    -0.000310    6.864045    -5.911444    -6.157612    14.638138    -0.459964    -5.647119    4.455562    7.912321    -18.856949    -27.620216    25.666981    -54.009514    0.725661    -11.501286    -99.233658    12.394637    -11.816908    -10.794122    -7.840744    -1.274469    -1.295967    30.592020    -17.387552    61.923649    -32.045200    -23.954039    58.818699    -0.752856    -6.202870    36.063194    28.021873    -10.144193    -2.026312    -12.559704    45.330978    -20.234961    10.918992    -29.218039    42.808701    0.000000    0.000000    0.000000    1.908820    -18.591463    -13.681412    10.904549    17.111162    -13.319705    9.591713    23.392368    -14.630197    0.000000    0.000000    0.000000    
